<svg width="33" height="33" viewBox="0 0 33 33" fill="none" xmlns="http://www.w3.org/2000/svg">
<path d="M10.8557 24.3428C9.93709 24.3428 9.23706 24.1048 8.75562 23.6289C8.2797 23.1585 8.04175 22.4696 8.04175 21.562V11.4766C8.04175 10.569 8.2797 9.88005 8.75562 9.40967C9.23706 8.93376 9.93709 8.6958 10.8557 8.6958H22.3357C23.2543 8.6958 23.9516 8.93376 24.4275 9.40967C24.9034 9.88005 25.1414 10.569 25.1414 11.4766V16.0752C24.9975 16.0475 24.8481 16.0254 24.6931 16.0088C24.5382 15.9922 24.3832 15.9839 24.2283 15.9839C24.0733 15.9839 23.9184 15.9922 23.7634 16.0088C23.6085 16.0254 23.4535 16.0475 23.2986 16.0752V13.917C23.2986 13.5739 23.21 13.3193 23.033 13.1533C22.8559 12.9818 22.6013 12.896 22.2693 12.896H10.9055C10.579 12.896 10.3272 12.9818 10.1501 13.1533C9.97306 13.3193 9.88452 13.5739 9.88452 13.917V21.4707C9.88452 21.8193 9.97306 22.0794 10.1501 22.251C10.3272 22.417 10.579 22.5 10.9055 22.5H18.8328C18.877 22.832 18.9573 23.153 19.0735 23.4629C19.1897 23.7728 19.3363 24.0661 19.5134 24.3428H10.8557ZM15.0061 15.6934C14.8567 15.6934 14.7515 15.6657 14.6907 15.6104C14.6298 15.5495 14.5994 15.4471 14.5994 15.3032V14.8135C14.5994 14.6641 14.6298 14.5617 14.6907 14.5063C14.7515 14.4455 14.8567 14.415 15.0061 14.415H15.4958C15.6453 14.415 15.7504 14.4455 15.8113 14.5063C15.8722 14.5617 15.9026 14.6641 15.9026 14.8135V15.3032C15.9026 15.4471 15.8722 15.5495 15.8113 15.6104C15.7504 15.6657 15.6453 15.6934 15.4958 15.6934H15.0061ZM17.6956 15.6934C17.5406 15.6934 17.4327 15.6657 17.3718 15.6104C17.3165 15.5495 17.2888 15.4471 17.2888 15.3032V14.8135C17.2888 14.6641 17.3165 14.5617 17.3718 14.5063C17.4327 14.4455 17.5406 14.415 17.6956 14.415H18.177C18.3264 14.415 18.4316 14.4455 18.4924 14.5063C18.5533 14.5617 18.5837 14.6641 18.5837 14.8135V15.3032C18.5837 15.4471 18.5533 15.5495 18.4924 15.6104C18.4316 15.6657 18.3264 15.6934 18.177 15.6934H17.6956ZM20.3767 15.6934C20.2218 15.6934 20.1139 15.6657 20.053 15.6104C19.9976 15.5495 19.97 15.4471 19.97 15.3032V14.8135C19.97 14.6641 19.9976 14.5617 20.053 14.5063C20.1139 14.4455 20.2218 14.415 20.3767 14.415H20.8665C21.0159 14.415 21.1182 14.4455 21.1736 14.5063C21.2345 14.5617 21.2649 14.6641 21.2649 14.8135V15.3032C21.2649 15.4471 21.2345 15.5495 21.1736 15.6104C21.1182 15.6657 21.0159 15.6934 20.8665 15.6934H20.3767ZM12.325 18.333C12.1755 18.333 12.0704 18.3053 12.0095 18.25C11.9542 18.1947 11.9265 18.0923 11.9265 17.9429V17.4531C11.9265 17.3037 11.9542 17.2013 12.0095 17.146C12.0704 17.0907 12.1755 17.063 12.325 17.063H12.8147C12.9641 17.063 13.0665 17.0907 13.1218 17.146C13.1827 17.2013 13.2131 17.3037 13.2131 17.4531V17.9429C13.2131 18.0923 13.1827 18.1947 13.1218 18.25C13.0665 18.3053 12.9641 18.333 12.8147 18.333H12.325ZM15.0061 18.333C14.8567 18.333 14.7515 18.3053 14.6907 18.25C14.6298 18.1947 14.5994 18.0923 14.5994 17.9429V17.4531C14.5994 17.3037 14.6298 17.2013 14.6907 17.146C14.7515 17.0907 14.8567 17.063 15.0061 17.063H15.4958C15.6453 17.063 15.7504 17.0907 15.8113 17.146C15.8722 17.2013 15.9026 17.3037 15.9026 17.4531V17.9429C15.9026 18.0923 15.8722 18.1947 15.8113 18.25C15.7504 18.3053 15.6453 18.333 15.4958 18.333H15.0061ZM17.6956 18.333C17.5406 18.333 17.4327 18.3053 17.3718 18.25C17.3165 18.1947 17.2888 18.0923 17.2888 17.9429V17.4531C17.2888 17.3037 17.3165 17.2013 17.3718 17.146C17.4327 17.0907 17.5406 17.063 17.6956 17.063H18.177C18.3264 17.063 18.4316 17.0907 18.4924 17.146C18.5533 17.2013 18.5837 17.3037 18.5837 17.4531V17.9429C18.5837 18.0923 18.5533 18.1947 18.4924 18.25C18.4316 18.3053 18.3264 18.333 18.177 18.333H17.6956ZM12.325 20.9727C12.1755 20.9727 12.0704 20.945 12.0095 20.8896C11.9542 20.8288 11.9265 20.7236 11.9265 20.5742V20.0928C11.9265 19.9434 11.9542 19.841 12.0095 19.7856C12.0704 19.7303 12.1755 19.7026 12.325 19.7026H12.8147C12.9641 19.7026 13.0665 19.7303 13.1218 19.7856C13.1827 19.841 13.2131 19.9434 13.2131 20.0928V20.5742C13.2131 20.7236 13.1827 20.8288 13.1218 20.8896C13.0665 20.945 12.9641 20.9727 12.8147 20.9727H12.325ZM15.0061 20.9727C14.8567 20.9727 14.7515 20.945 14.6907 20.8896C14.6298 20.8288 14.5994 20.7236 14.5994 20.5742V20.0928C14.5994 19.9434 14.6298 19.841 14.6907 19.7856C14.7515 19.7303 14.8567 19.7026 15.0061 19.7026H15.4958C15.6453 19.7026 15.7504 19.7303 15.8113 19.7856C15.8722 19.841 15.9026 19.9434 15.9026 20.0928V20.5742C15.9026 20.7236 15.8722 20.8288 15.8113 20.8896C15.7504 20.945 15.6453 20.9727 15.4958 20.9727H15.0061ZM17.6956 20.9727C17.5406 20.9727 17.4327 20.945 17.3718 20.8896C17.3165 20.8288 17.2888 20.7236 17.2888 20.5742V20.0928C17.2888 19.9434 17.3165 19.841 17.3718 19.7856C17.4327 19.7303 17.5406 19.7026 17.6956 19.7026H18.177C18.3264 19.7026 18.4316 19.7303 18.4924 19.7856C18.5533 19.841 18.5837 19.9434 18.5837 20.0928V20.5742C18.5837 20.7236 18.5533 20.8288 18.4924 20.8896C18.4316 20.945 18.3264 20.9727 18.177 20.9727H17.6956ZM24.2366 25.8286C23.6444 25.8286 23.0883 25.7152 22.5681 25.4883C22.0479 25.2614 21.5886 24.9487 21.1902 24.5503C20.7973 24.1574 20.4874 23.7008 20.2605 23.1807C20.0336 22.6605 19.9202 22.1043 19.9202 21.5122C19.9202 20.9146 20.0336 20.3584 20.2605 19.8438C20.4874 19.3236 20.7973 18.8643 21.1902 18.4658C21.5886 18.0674 22.0479 17.7575 22.5681 17.5361C23.0883 17.3092 23.6444 17.1958 24.2366 17.1958C24.8287 17.1958 25.3848 17.3092 25.905 17.5361C26.4252 17.7575 26.8845 18.0674 27.283 18.4658C27.6814 18.8587 27.9913 19.3153 28.2126 19.8354C28.434 20.3556 28.5447 20.9146 28.5447 21.5122C28.5447 22.0988 28.4312 22.6522 28.2043 23.1724C27.983 23.6925 27.6731 24.1519 27.2747 24.5503C26.8762 24.9487 26.4169 25.2614 25.8967 25.4883C25.3765 25.7152 24.8232 25.8286 24.2366 25.8286ZM22.2527 22.2593H24.2864C24.4635 22.2593 24.6101 22.1984 24.7263 22.0767C24.8481 21.9549 24.9089 21.8055 24.9089 21.6284V19.1465C24.9089 18.9749 24.8481 18.8311 24.7263 18.7148C24.6046 18.5931 24.4579 18.5322 24.2864 18.5322C24.1093 18.5322 23.9599 18.5931 23.8381 18.7148C23.7219 18.8311 23.6638 18.9749 23.6638 19.1465V21.0059H22.2527C22.0811 21.0059 21.9317 21.0667 21.8044 21.1885C21.6827 21.3102 21.6218 21.4569 21.6218 21.6284C21.6218 21.8 21.6827 21.9494 21.8044 22.0767C21.9262 22.1984 22.0756 22.2593 22.2527 22.2593Z" fill="#82BDF3"/>
</svg>
