<svg width="33" height="33" viewBox="0 0 33 33" fill="none" xmlns="http://www.w3.org/2000/svg">
<path d="M8.53955 10.9453L12.8145 6.77002C13.0192 6.5708 13.2544 6.47119 13.52 6.47119C13.8078 6.47119 14.0402 6.5625 14.2173 6.74512C14.3999 6.9222 14.4912 7.15186 14.4912 7.43408C14.4912 7.70524 14.3971 7.92936 14.209 8.10645L12.4492 9.81641L11.3535 10.7544L13.022 10.7046H23.6055C23.8822 10.7046 24.1118 10.7959 24.2944 10.9785C24.4771 11.1611 24.5684 11.3908 24.5684 11.6675C24.5684 11.9497 24.4771 12.1849 24.2944 12.373C24.1118 12.5557 23.8822 12.647 23.6055 12.647H13.022L11.3535 12.5889L12.4492 13.5352L14.209 15.2285C14.3971 15.4111 14.4912 15.638 14.4912 15.9092C14.4912 16.1914 14.3999 16.4238 14.2173 16.6064C14.0402 16.7835 13.8078 16.8721 13.52 16.8721C13.2544 16.8721 13.0192 16.7725 12.8145 16.5732L8.53955 12.3979C8.32373 12.1932 8.21582 11.9525 8.21582 11.6758C8.21582 11.3936 8.32373 11.1501 8.53955 10.9453ZM24.2612 22.085L19.978 26.2603C19.7788 26.4595 19.5409 26.5591 19.2642 26.5591C18.9819 26.5591 18.7495 26.4678 18.5669 26.2852C18.3898 26.1081 18.3013 25.8784 18.3013 25.5962C18.3013 25.325 18.3926 25.0981 18.5752 24.9155L20.3516 23.2139L21.4473 22.2759L19.7705 22.334H9.19531C8.91309 22.334 8.6779 22.2427 8.48975 22.0601C8.30713 21.8719 8.21582 21.6367 8.21582 21.3545C8.21582 21.0723 8.30713 20.8398 8.48975 20.6572C8.6779 20.4746 8.91309 20.3833 9.19531 20.3833H19.7705L21.4473 20.4414L20.3516 19.4951L18.5752 17.7935C18.3926 17.6164 18.3013 17.3923 18.3013 17.1211C18.3013 16.8389 18.3898 16.6092 18.5669 16.4321C18.7495 16.2495 18.9819 16.1582 19.2642 16.1582C19.5409 16.1582 19.7788 16.2578 19.978 16.457L24.2612 20.6323C24.466 20.8315 24.5684 21.0723 24.5684 21.3545C24.5739 21.6367 24.4715 21.8802 24.2612 22.085Z" fill="#82BDF3"/>
</svg>
