<svg width="32" height="33" viewBox="0 0 32 33" fill="none" xmlns="http://www.w3.org/2000/svg">
<path d="M12.5801 14.9214C12.403 14.9214 12.2508 14.8605 12.1235 14.7388C12.0018 14.6115 11.9409 14.4621 11.9409 14.2905C11.9409 14.1134 12.0018 13.964 12.1235 13.8423C12.2508 13.715 12.403 13.6514 12.5801 13.6514H19.4199C19.597 13.6514 19.7464 13.715 19.8682 13.8423C19.9954 13.964 20.0591 14.1134 20.0591 14.2905C20.0591 14.4621 19.9954 14.6115 19.8682 14.7388C19.7464 14.8605 19.597 14.9214 19.4199 14.9214H12.5801ZM12.5801 17.8516C12.3975 17.8516 12.2453 17.7907 12.1235 17.6689C12.0018 17.5472 11.9409 17.3978 11.9409 17.2207C11.9409 17.0436 12.0018 16.8942 12.1235 16.7725C12.2453 16.6507 12.3975 16.5898 12.5801 16.5898H19.4199C19.6025 16.5898 19.7547 16.6507 19.8765 16.7725C19.9982 16.8942 20.0591 17.0436 20.0591 17.2207C20.0591 17.3978 19.9982 17.5472 19.8765 17.6689C19.7547 17.7907 19.6025 17.8516 19.4199 17.8516H12.5801ZM12.5801 20.9478C12.403 20.9478 12.2508 20.8869 12.1235 20.7651C12.0018 20.6379 11.9409 20.4857 11.9409 20.3086C11.9409 20.137 12.0018 19.9904 12.1235 19.8687C12.2453 19.7414 12.3975 19.6777 12.5801 19.6777H16.1328C16.3099 19.6777 16.4593 19.7414 16.5811 19.8687C16.7083 19.9904 16.772 20.137 16.772 20.3086C16.772 20.4857 16.7083 20.6379 16.5811 20.7651C16.4538 20.8869 16.3044 20.9478 16.1328 20.9478H12.5801ZM11.6006 26.2188C10.6986 26.2188 10.0068 25.9753 9.52539 25.4883C9.04395 25.0013 8.80322 24.3013 8.80322 23.3882V10.8457C8.80322 9.94922 9.03841 9.25472 9.50879 8.76221C9.97917 8.26416 10.6543 8.01514 11.5342 8.01514H11.7168C11.6891 8.08154 11.6698 8.15348 11.6587 8.23096C11.6476 8.3029 11.6421 8.3776 11.6421 8.45508V9.24365C11.6421 9.45947 11.6725 9.64486 11.7334 9.7998H11.5757C11.2547 9.7998 11.0085 9.89665 10.8369 10.0903C10.6709 10.284 10.5879 10.5413 10.5879 10.8623V23.3716C10.5879 23.7091 10.6792 23.9692 10.8618 24.1519C11.0444 24.34 11.3156 24.4341 11.6753 24.4341H20.3247C20.6789 24.4341 20.9473 24.34 21.1299 24.1519C21.318 23.9692 21.4121 23.7091 21.4121 23.3716V10.8623C21.4121 10.5413 21.3263 10.284 21.1548 10.0903C20.9888 9.89665 20.7453 9.7998 20.4243 9.7998H20.2666C20.3275 9.64486 20.3579 9.45947 20.3579 9.24365V8.45508C20.3579 8.3776 20.3524 8.3029 20.3413 8.23096C20.3302 8.15348 20.3109 8.08154 20.2832 8.01514H20.4658C21.3457 8.01514 22.0208 8.26416 22.4912 8.76221C22.9616 9.25472 23.1968 9.94922 23.1968 10.8457V23.3882C23.1968 24.3013 22.9561 25.0013 22.4746 25.4883C21.9932 25.9753 21.3014 26.2188 20.3994 26.2188H11.6006ZM13.4434 10.1982C13.1888 10.1982 12.9896 10.1235 12.8457 9.97412C12.7018 9.81917 12.6299 9.60335 12.6299 9.32666V8.45508C12.6299 8.17839 12.7018 7.96533 12.8457 7.81592C12.9896 7.66097 13.1888 7.5835 13.4434 7.5835H14.1074C14.1406 7.08545 14.3371 6.66488 14.6968 6.32178C15.062 5.97314 15.4964 5.79883 16 5.79883C16.5036 5.79883 16.9352 5.97314 17.2949 6.32178C17.6602 6.66488 17.8594 7.08545 17.8926 7.5835H18.5483C18.8084 7.5835 19.0104 7.66097 19.1543 7.81592C19.2982 7.96533 19.3701 8.17839 19.3701 8.45508V9.32666C19.3701 9.60335 19.2982 9.81917 19.1543 9.97412C19.0104 10.1235 18.8084 10.1982 18.5483 10.1982H13.4434ZM16 8.38867C16.2048 8.38867 16.3791 8.31673 16.5229 8.17285C16.6668 8.02344 16.7388 7.84912 16.7388 7.6499C16.7388 7.44515 16.6668 7.27083 16.5229 7.12695C16.3791 6.98307 16.2048 6.91113 16 6.91113C15.7952 6.91113 15.6209 6.98307 15.4771 7.12695C15.3332 7.27083 15.2612 7.44515 15.2612 7.6499C15.2612 7.84912 15.3332 8.02344 15.4771 8.17285C15.6209 8.31673 15.7952 8.38867 16 8.38867Z" fill="#82BDF3"/>
</svg>
