<svg width="33" height="33" viewBox="0 0 33 33" fill="none" xmlns="http://www.w3.org/2000/svg">
<path d="M16.7998 25.1646C15.6156 25.1646 14.5005 24.9377 13.4546 24.4839C12.4087 24.0356 11.4873 23.4131 10.6904 22.6162C9.89355 21.8193 9.26823 20.9007 8.81445 19.8604C8.36621 18.8145 8.14209 17.6966 8.14209 16.5068C8.14209 15.3226 8.36621 14.2103 8.81445 13.1699C9.26823 12.124 9.89079 11.2026 10.6821 10.4058C11.479 9.60889 12.4004 8.98633 13.4463 8.53809C14.4922 8.08431 15.6073 7.85742 16.7915 7.85742C17.9757 7.85742 19.0908 8.08431 20.1367 8.53809C21.1882 8.98633 22.1095 9.60889 22.9009 10.4058C23.6978 11.2026 24.3231 12.124 24.7769 13.1699C25.2306 14.2103 25.4575 15.3226 25.4575 16.5068C25.4575 17.6966 25.2306 18.8145 24.7769 19.8604C24.3231 20.9007 23.6978 21.8193 22.9009 22.6162C22.1095 23.4131 21.1909 24.0356 20.145 24.4839C19.0991 24.9377 17.984 25.1646 16.7998 25.1646ZM16.7998 23.2637C17.735 23.2637 18.6094 23.0894 19.4229 22.7407C20.2419 22.3921 20.9613 21.9106 21.5811 21.2964C22.2008 20.6766 22.6851 19.96 23.0337 19.1465C23.3823 18.3275 23.5566 17.4476 23.5566 16.5068C23.5566 15.5716 23.3796 14.6973 23.0254 13.8838C22.6768 13.0648 22.1925 12.3454 21.5728 11.7256C20.9585 11.1058 20.2419 10.6216 19.4229 10.2729C18.6094 9.92432 17.7323 9.75 16.7915 9.75C15.8563 9.75 14.9792 9.92432 14.1602 10.2729C13.3467 10.6216 12.63 11.1058 12.0103 11.7256C11.396 12.3454 10.9146 13.0648 10.5659 13.8838C10.2228 14.6973 10.0513 15.5716 10.0513 16.5068C10.0513 17.4476 10.2228 18.3275 10.5659 19.1465C10.9146 19.96 11.3988 20.6766 12.0186 21.2964C12.6383 21.9106 13.355 22.3921 14.1685 22.7407C14.9875 23.0894 15.8646 23.2637 16.7998 23.2637ZM12.8818 17.7769C12.5277 17.7769 12.2261 17.6523 11.9771 17.4033C11.728 17.1543 11.6035 16.8527 11.6035 16.4985C11.6035 16.1444 11.728 15.8428 11.9771 15.5938C12.2261 15.3447 12.5277 15.2202 12.8818 15.2202C13.2305 15.2202 13.5293 15.3447 13.7783 15.5938C14.0329 15.8428 14.1602 16.1444 14.1602 16.4985C14.1602 16.8527 14.0356 17.1543 13.7866 17.4033C13.5376 17.6523 13.236 17.7769 12.8818 17.7769ZM16.7915 17.7769C16.4429 17.7769 16.1413 17.6523 15.8867 17.4033C15.6377 17.1543 15.5132 16.8527 15.5132 16.4985C15.5132 16.1444 15.6377 15.8428 15.8867 15.5938C16.1413 15.3447 16.4429 15.2202 16.7915 15.2202C17.1401 15.2202 17.439 15.3447 17.688 15.5938C17.9425 15.8428 18.0698 16.1444 18.0698 16.4985C18.0698 16.8527 17.9425 17.1543 17.688 17.4033C17.439 17.6523 17.1401 17.7769 16.7915 17.7769ZM20.7012 17.7769C20.347 17.7769 20.0454 17.6523 19.7964 17.4033C19.5474 17.1543 19.4229 16.8527 19.4229 16.4985C19.4229 16.1444 19.5474 15.8428 19.7964 15.5938C20.0454 15.3447 20.347 15.2202 20.7012 15.2202C21.0553 15.2202 21.3569 15.3447 21.606 15.5938C21.855 15.8428 21.9795 16.1444 21.9795 16.4985C21.9795 16.8527 21.855 17.1543 21.606 17.4033C21.3569 17.6523 21.0553 17.7769 20.7012 17.7769Z" fill="#82BDF3"/>
</svg>
