<svg width="33" height="33" viewBox="0 0 33 33" fill="none" xmlns="http://www.w3.org/2000/svg">
<path d="M6.97784 23.5957C6.97784 23.3356 7.06915 23.117 7.25177 22.9399C7.43439 22.7629 7.65297 22.6743 7.90753 22.6743H24.4842C24.7443 22.6743 24.9656 22.7629 25.1483 22.9399C25.3309 23.117 25.4222 23.3356 25.4222 23.5957C25.4222 23.8669 25.3309 24.0882 25.1483 24.2598C24.9656 24.4313 24.7443 24.5171 24.4842 24.5171H7.90753C7.65297 24.5171 7.43439 24.4313 7.25177 24.2598C7.06915 24.0882 6.97784 23.8669 6.97784 23.5957ZM7.90753 20.5825V14.0415C7.90753 13.7814 7.98501 13.5739 8.13995 13.4189C8.2949 13.264 8.50519 13.1865 8.77081 13.1865H10.4974C10.7519 13.1865 10.9567 13.264 11.1116 13.4189C11.2721 13.5739 11.3524 13.7814 11.3524 14.0415V20.5825C11.3524 20.8426 11.2721 21.0474 11.1116 21.1968C10.9567 21.3462 10.7519 21.4209 10.4974 21.4209H8.77081C8.50519 21.4209 8.2949 21.3462 8.13995 21.1968C7.98501 21.0474 7.90753 20.8426 7.90753 20.5825ZM12.282 20.5825V10.4556C12.282 10.1955 12.3595 9.99072 12.5145 9.84131C12.6749 9.68636 12.8852 9.60889 13.1453 9.60889H14.8636C15.1292 9.60889 15.3395 9.68636 15.4944 9.84131C15.6494 9.99072 15.7269 10.1955 15.7269 10.4556V20.5825C15.7269 20.8426 15.6494 21.0474 15.4944 21.1968C15.3395 21.3462 15.1292 21.4209 14.8636 21.4209H13.1453C12.8852 21.4209 12.6749 21.3462 12.5145 21.1968C12.3595 21.0474 12.282 20.8426 12.282 20.5825ZM16.6649 20.5825V12.3647C16.6649 12.1047 16.7396 11.8999 16.889 11.7505C17.0439 11.5955 17.2542 11.5181 17.5198 11.5181H19.2464C19.5065 11.5181 19.714 11.5955 19.869 11.7505C20.0239 11.8999 20.1014 12.1047 20.1014 12.3647V20.5825C20.1014 20.8426 20.0239 21.0474 19.869 21.1968C19.714 21.3462 19.5065 21.4209 19.2464 21.4209H17.5198C17.2542 21.4209 17.0439 21.3462 16.889 21.1968C16.7396 21.0474 16.6649 20.8426 16.6649 20.5825ZM21.0394 20.5825V15.6768C21.0394 15.4167 21.1168 15.2091 21.2718 15.0542C21.4267 14.8993 21.6343 14.8218 21.8943 14.8218H23.6209C23.881 14.8218 24.0885 14.8993 24.2435 15.0542C24.404 15.2091 24.4842 15.4167 24.4842 15.6768V20.5825C24.4842 20.8426 24.404 21.0474 24.2435 21.1968C24.0885 21.3462 23.881 21.4209 23.6209 21.4209H21.8943C21.6343 21.4209 21.4267 21.3462 21.2718 21.1968C21.1168 21.0474 21.0394 20.8426 21.0394 20.5825Z" fill="#82BDF3"/>
</svg>
